<svg width="35" height="35" viewBox="0 0 35 35" fill="none" xmlns="http://www.w3.org/2000/svg">
<path d="M13.3348 30.3071V25.8346C13.3347 24.7012 14.2563 23.7805 15.3979 23.7733H19.5894C20.736 23.7733 21.6656 24.6962 21.6656 25.8346V30.2941C21.6655 31.2771 22.4644 32.076 23.4545 32.0831H26.3141C27.6496 32.0866 28.9317 31.5622 29.8773 30.6259C30.8229 29.6895 31.3543 28.418 31.3543 27.0921V14.3875C31.3543 13.3164 30.8761 12.3005 30.0486 11.6133L20.3337 3.89981C18.6355 2.55064 16.2101 2.59422 14.5622 4.00352L5.05622 11.6133C4.18958 12.2802 3.67159 13.2992 3.646 14.3875V27.0791C3.646 29.8427 5.90259 32.0831 8.68625 32.0831H11.4806C11.9573 32.0866 12.4157 31.901 12.754 31.5675C13.0923 31.2341 13.2826 30.7804 13.2825 30.3071H13.3348Z" fill="#FF7074"/>
</svg>
